<svg style="position:absolute; width: 0; height: 0; overflow: hidden;" version="1.1" xmlns="http://www.w3.org/2000/svg" xmlns:xlink="http://www.w3.org/1999/xlink">
<defs>

<symbol id="simulation" viewBox="0 0 450 450" >
  <g fill="none" stroke-width=".5rem" stroke="#0072bc">
  	<polygon points="379.323,124.791 394.323,124.791 394.323,107.335 411.779,107.335 411.779,92.335 394.323,92.335 394.323,74.88 
				379.323,74.88 379.323,92.335 361.868,92.335 361.868,107.335 379.323,107.335 			"/>
			<polygon points="179.679,124.791 194.679,124.791 194.679,107.335 212.135,107.335 212.135,92.335 194.679,92.335 194.679,74.88 
				179.679,74.88 179.679,92.335 162.224,92.335 162.224,107.335 179.679,107.335 			"/>
			<path d="M139.75,67.471c-6.536,9.479-9.982,20.611-9.982,32.364c0,31.656,25.754,57.411,57.411,57.411
				c18.919,0,36.672-9.462,47.338-24.955h104.95c1.483,2.172,3.124,4.259,4.918,6.253v89.375h14.974v34.14h24.955v27.438h15v-27.438
				h24.955v-34.14h14.974V124.791h-0.755c3.765-7.706,5.746-16.266,5.746-24.956c0-31.656-25.755-57.41-57.411-57.41
				c-18.933,0-36.698,9.477-47.341,24.955H234.608V17.495h82.34v-15H57.411v15h82.339V67.471z M409.269,247.059h-34.91v-19.14h34.91
				V247.059z M424.242,212.919h-64.857v-20.736h64.857V212.919z M424.244,177.182L424.244,177.182h-64.858v-26.856
				c8.316,4.51,17.691,6.919,27.438,6.919c13.956,0,27.174-5.083,37.42-13.912V177.182z M350.087,78.643
				c7.706-13.288,21.439-21.219,36.736-21.219c23.386,0,42.411,19.025,42.411,42.41c0,7.215-1.841,14.295-5.323,20.476l-0.032,0.058
				c-7.448,13.495-21.647,21.878-37.056,21.878c-10.201,0-19.845-3.551-27.438-9.994v-0.674h-0.789
				c-0.477-0.426-0.948-0.861-1.408-1.311c-2.791-2.79-5.175-5.891-7.127-9.283c-3.696-6.276-5.65-13.59-5.65-21.149
				C344.411,92.276,346.365,84.963,350.087,78.643z M241.896,82.38h90.21c-1.772,5.577-2.695,11.465-2.695,17.455
				c0,5.995,0.924,11.889,2.691,17.456h-90.206c1.772-5.576,2.694-11.465,2.694-17.456C244.59,93.843,243.668,87.955,241.896,82.38z
				 M154.75,17.495h64.857v35.035c-9.468-6.471-20.777-10.106-32.428-10.106c-11.652,0-22.965,3.637-32.429,10.104V17.495z
				 M153.245,74.396c7.993-10.627,20.679-16.972,33.935-16.972s25.942,6.345,33.929,16.964c1.178,1.57,2.022,2.846,2.739,4.135
				l0.093,0.163c3.697,6.275,5.65,13.588,5.65,21.148s-1.954,14.874-5.65,21.149l-0.026,0.044
				c-7.706,13.286-21.439,21.218-36.735,21.218c-23.385,0-42.411-19.025-42.411-42.411C144.769,90.499,147.693,81.71,153.245,74.396
				z"/>
			<path d="M424.269,371.836v-59.893h-94.857v59.893h-44.893v-59.893h-94.857v59.893h-44.893v-59.893H49.911v59.893H0v82.366
				c0,15.145,12.32,27.465,27.464,27.465h429.233c15.145,0,27.465-12.32,27.465-27.465v-82.366H424.269z M344.412,326.943h64.857
				v44.893h-64.857V326.943z M269.519,326.943v44.893h-64.857v-44.893H269.519z M64.911,326.943h64.857v44.893H64.911V326.943z
				 M469.161,454.202c0.002,6.873-5.59,12.465-12.463,12.465H27.464c-6.873,0-12.464-5.592-12.464-12.465v-32.429h59.867v32.429h15
				v-32.429h64.857v32.429h15v-32.429h64.857v32.429h15v-32.429h64.857v32.429h15v-32.429h64.857v32.429h15v-32.429h59.866V454.202z
				 M469.163,406.773H15v-19.938h454.163V406.773z"/>
        </g>
</symbol>

<symbol id="work"  viewBox="0 0 48 48">
<title>Jobs</title>
<path d="M 16.5 5 A 1.50015 1.50015 0 0 0 15 6.5 L 15 14 L 11.5 14 C 7.3754991 14 4 17.375499 4 21.5 L 4 35.5 C 4 39.624501 7.3754991 43 11.5 43 L 36.5 43 C 40.624501 43 44 39.624501 44 35.5 L 44 21.5 C 44 17.375499 40.624501 14 36.5 14 L 33 14 L 33 6.5 A 1.50015 1.50015 0 0 0 31.5 5 L 16.5 5 z M 18 8 L 30 8 L 30 14 L 18 14 L 18 8 z M 11.5 17 L 16.5 17 L 31.5 17 L 36.5 17 C 39.003499 17 41 18.996501 41 21.5 L 41 35.5 C 41 38.003499 39.003499 40 36.5 40 L 11.5 40 C 8.9965009 40 7 38.003499 7 35.5 L 7 21.5 C 7 18.996501 8.9965009 17 11.5 17 z"/></symbol>

<symbol id="add"  viewBox="0 0 20 20">
<title>Add Job</title>
<path d="M15.8333 10.8333H10.8333V15.8333H9.16666V10.8333H4.16666V9.16667H9.16666V4.16667H10.8333V9.16667H15.8333V10.8333Z"/>
</symbol>


  <symbol id="collapse"  viewBox="0 0 16 16">
<title>Collapse Menu</title>
  <path d="M16 8A8 8 0 1 1 0 8a8 8 0 0 1 16 0zM6.79 5.093A.5.5 0 0 0 6 5.5v5a.5.5 0 0 0 .79.407l3.5-2.5a.5.5 0 0 0 0-.814l-3.5-2.5z"/>
</symbol>

<symbol id="log"    viewBox="0 0 50 50">
<title>Logs</title>
<path d="M 11.5 2 C 9.5788117 2 8 3.5788117 8 5.5 L 8 44.5 C 8 46.421188 9.5788117 48 11.5 48 L 38.5 48 C 40.421188 48 42 46.421188 42 44.5 L 42 14.585938 L 29.414062 2 L 11.5 2 z M 11.5 4 L 28 4 L 28 12.5 C 28 14.421188 29.578812 16 31.5 16 L 40 16 L 40 44.5 C 40 45.340812 39.340812 46 38.5 46 L 11.5 46 C 10.659188 46 10 45.340812 10 44.5 L 10 5.5 C 10 4.6591883 10.659188 4 11.5 4 z M 30 5.4140625 L 38.585938 14 L 31.5 14 C 30.659188 14 30 13.340812 30 12.5 L 30 5.4140625 z M 18.5 24.5 A 1.5 1.5 0 0 0 17 26 A 1.5 1.5 0 0 0 18.5 27.5 A 1.5 1.5 0 0 0 20 26 A 1.5 1.5 0 0 0 18.5 24.5 z M 22 25 L 22 27 L 33 27 L 33 25 L 22 25 z M 18.5 29.5 A 1.5 1.5 0 0 0 17 31 A 1.5 1.5 0 0 0 18.5 32.5 A 1.5 1.5 0 0 0 20 31 A 1.5 1.5 0 0 0 18.5 29.5 z M 22 30 L 22 32 L 33 32 L 33 30 L 22 30 z M 18.5 34.5 A 1.5 1.5 0 0 0 17 36 A 1.5 1.5 0 0 0 18.5 37.5 A 1.5 1.5 0 0 0 20 36 A 1.5 1.5 0 0 0 18.5 34.5 z M 22 35 L 22 37 L 33 37 L 33 35 L 22 35 z"/>
</symbol>

<symbol id="filter_list"  viewBox="0 0 20 20">
<title>Filter List</title>
<path d="M8.33333 15H11.6667V13.3333H8.33333V15ZM2.5 5V6.66667H17.5V5H2.5ZM5 10.8333H15V9.16667H5V10.8333Z" fill="#198754"/>
</symbol>

<symbol id="tiny-filter"  viewBox="0 0 20 20">
<title>Filter List</title>
<path d="M8.33333 15H11.6667V13.3333H8.33333V15ZM2.5 5V6.66667H17.5V5H2.5ZM5 10.8333H15V9.16667H5V10.8333Z" />
</symbol>


<symbol id="arrow-down"  viewBox="0 0 20 20">
<title></title>
<path d="M7.41 8.59L12 13.17L16.59 8.59L18 10L12 16L6 10L7.41 8.59Z" fill="#E4E4E4"/>
</symbol>

<symbol id="materials"  viewBox="0 0 20 20" fill="transparent" stroke="#0072bc">
<title>Materials</title>
<path d="M10 1.66666L5.41669 9.16666H14.5834L10 1.66666Z" />
<path d="M14.5833 18.3333C16.6544 18.3333 18.3333 16.6544 18.3333 14.5833C18.3333 12.5123 16.6544 10.8333 14.5833 10.8333C12.5122 10.8333 10.8333 12.5123 10.8333 14.5833C10.8333 16.6544 12.5122 18.3333 14.5833 18.3333Z" />
<path d="M2.5 11.25H9.16667V17.9167H2.5V11.25Z" />
</symbol>

<symbol id="setting"  viewBox="0 0 20 20" fill="transparent" stroke="#0072bc">
<title>Configure</title>
<path d="M15.95 10.78C15.98 10.53 16 10.27 16 10C16 9.73 15.98 9.47 15.94 9.22L17.63 7.9C17.78 7.78 17.82 7.56 17.73 7.39L16.13 4.62C16.03 4.44 15.82 4.38 15.64 4.44L13.65 5.24C13.23 4.92 12.79 4.66 12.3 4.46L12 2.34C11.97 2.14 11.8 2 11.6 2H8.40001C8.20001 2 8.04001 2.14 8.01001 2.34L7.71001 4.46C7.22001 4.66 6.77001 4.93 6.36001 5.24L4.37001 4.44C4.19001 4.37 3.98001 4.44 3.88001 4.62L2.28001 7.39C2.18001 7.57 2.22001 7.78 2.38001 7.9L4.07001 9.22C4.03001 9.47 4.00001 9.74 4.00001 10C4.00001 10.26 4.02001 10.53 4.06001 10.78L2.37001 12.1C2.22001 12.22 2.18001 12.44 2.27001 12.61L3.87001 15.38C3.97001 15.56 4.18001 15.62 4.36001 15.56L6.35001 14.76C6.77001 15.08 7.21001 15.34 7.70001 15.54L8.00001 17.66C8.04001 17.86 8.20001 18 8.40001 18H11.6C11.8 18 11.97 17.86 11.99 17.66L12.29 15.54C12.78 15.34 13.23 15.07 13.64 14.76L15.63 15.56C15.81 15.63 16.02 15.56 16.12 15.38L17.72 12.61C17.82 12.43 17.78 12.22 17.62 12.1L15.95 10.78ZM10 13C8.35001 13 7.00001 11.65 7.00001 10C7.00001 8.35 8.35001 7 10 7C11.65 7 13 8.35 13 10C13 11.65 11.65 13 10 13Z"/>
</symbol>

<symbol id="tool" viewBox="0 0 29 29">
<title>Tools</title>
<path d="M 21 3 C 16.570313 3 13 6.570313 13 11 C 13 11.234375 13.035156 11.554688 13.0625 11.84375 L 4.5 20.40625 C 2.53125 22.375 2.53125 25.53125 4.5 27.5 C 6.46875 29.46875 9.625 29.46875 11.59375 27.5 L 20.15625 18.9375 C 20.445313 18.964844 20.765625 19 21 19 C 25.429688 19 29 15.429688 29 11 C 29 9.632813 28.648438 8.367188 28.0625 7.3125 L 27.4375 6.15625 L 26.5 7.09375 L 22.1875 11.375 L 20.625 9.8125 L 24.90625 5.5 L 25.84375 4.5625 L 24.6875 3.9375 C 23.632813 3.351563 22.367188 3 21 3 Z M 21 5 C 21.484375 5 21.847656 5.207031 22.28125 5.3125 L 17.78125 9.8125 L 18.5 10.5 L 21.5 13.5 L 22.1875 14.21875 L 26.6875 9.71875 C 26.792969 10.152344 27 10.515625 27 11 C 27 14.371094 24.371094 17 21 17 C 20.601563 17 20.277344 17 20.03125 16.9375 L 19.5 16.78125 L 10.1875 26.09375 C 8.957031 27.324219 7.136719 27.324219 5.90625 26.09375 L 5.875 26.0625 C 4.675781 24.832031 4.683594 23.035156 5.90625 21.8125 L 15.21875 12.5 L 15.0625 11.96875 C 15 11.722656 15 11.398438 15 11 C 15 7.628906 17.628906 5 21 5 Z"/>
</symbol>

<symbol id="toggle-on"  viewBox="0 0 32 32">
<title>Click to Off</title>
<path d="M22.6667 9.33333H9.33335C5.65335 9.33333 2.66669 12.32 2.66669 16C2.66669 19.68 5.65335 22.6667 9.33335 22.6667H22.6667C26.3467 22.6667 29.3334 19.68 29.3334 16C29.3334 12.32 26.3467 9.33333 22.6667 9.33333ZM22.6667 20C20.4534 20 18.6667 18.2133 18.6667 16C18.6667 13.7867 20.4534 12 22.6667 12C24.88 12 26.6667 13.7867 26.6667 16C26.6667 18.2133 24.88 20 22.6667 20Z" fill="#0072BC"/>
</symbol>

<symbol id="toggle-off"  viewBox="0 0 25 25">
<title>Click to On</title>
<path d="M17 7H7C4.24 7 2 9.24 2 12C2 14.76 4.24 17 7 17H17C19.76 17 22 14.76 22 12C22 9.24 19.76 7 17 7ZM7 15C5.34 15 4 13.66 4 12C4 10.34 5.34 9 7 9C8.66 9 10 10.34 10 12C10 13.66 8.66 15 7 15Z"  fill="#5C5C5C"/>
</symbol>

<symbol id="arrow-up-red"  viewBox="0 0 20 20">

<path d="M3.33334 9.99998L4.51251 11.1791L9.16668 6.52498V16.6666H10.8333V6.52498L15.4875 11.1791L16.6667 9.99998L10 3.33331L3.33334 9.99998Z"/>
</symbol>

<symbol id="delete"  viewBox="0 0 20 20">
<title>delete</title>
<path d="M5.00001 15.8333C5.00001 16.75 5.75001 17.5 6.66667 17.5H13.3333C14.25 17.5 15 16.75 15 15.8333V5.83333H5.00001V15.8333ZM15.8333 3.33333H12.9167L12.0833 2.5H7.91667L7.08334 3.33333H4.16667V5H15.8333V3.33333Z" fill="#842029"/>
</symbol>

<symbol id="error"  viewBox="0 0 20 20">
<title>error</title>
<path d="M10 1.66667C5.40001 1.66667 1.66667 5.40001 1.66667 10C1.66667 14.6 5.40001 18.3333 10 18.3333C14.6 18.3333 18.3333 14.6 18.3333 10C18.3333 5.40001 14.6 1.66667 10 1.66667ZM10.8333 14.1667H9.16667V12.5H10.8333V14.1667ZM10.8333 10.8333H9.16667V5.83334H10.8333V10.8333Z" fill="#0072BC"/>
</symbol>

<symbol id="tick" viewBox="0 0 16 16">
<path d="M5.49999 9.49999L1.99999 5.99999L0.833328 7.16666L5.49999 11.8333L15.5 1.83332L14.3333 0.666656L5.49999 9.49999Z" fill="#28A745"/>
</symbol>

<symbol id="refresh"  viewBox="0 0 16 16">
<title>restore</title>
<path d="M11.7667 4.23332C10.8 3.26666 9.47334 2.66666 8.00001 2.66666C5.05334 2.66666 2.67334 5.05332 2.67334 7.99999C2.67334 10.9467 5.05334 13.3333 8.00001 13.3333C10.4867 13.3333 12.56 11.6333 13.1533 9.33332H11.7667C11.22 10.8867 9.74001 12 8.00001 12C5.79334 12 4.00001 10.2067 4.00001 7.99999C4.00001 5.79332 5.79334 3.99999 8.00001 3.99999C9.10667 3.99999 10.0933 4.45999 10.8133 5.18666L8.66667 7.33332H13.3333V2.66666L11.7667 4.23332Z" />
</symbol>

<symbol id="done"  viewBox=".3 0 14 14">
<title>Done</title>
<path d="M5.25 9.45L2.8 7L1.98334 7.81667L5.25 11.0833L12.25 4.08334L11.4333 3.26667L5.25 9.45Z" fill="white"/>
</symbol>

<symbol id="info"  viewBox="1 1 14 14">
<title>Info</title>
<path d="M8.00001 1.33334C4.32001 1.33334 1.33334 4.32001 1.33334 8.00001C1.33334 11.68 4.32001 14.6667 8.00001 14.6667C11.68 14.6667 14.6667 11.68 14.6667 8.00001C14.6667 4.32001 11.68 1.33334 8.00001 1.33334ZM8.66668 11.3333H7.33334V7.33334H8.66668V11.3333ZM8.66668 6.00001H7.33334V4.66668H8.66668V6.00001Z" fill="#0072BC"/>
</symbol>

<symbol id="close"  viewBox="0 0 14 14">
<title>Close</title>
<path d="M10 4.60429L9.39571 4L7 6.39571L4.60429 4L4 4.60429L6.39571 7L4 9.39571L4.60429 10L7 7.60429L9.39571 10L10 9.39571L7.60429 7L10 4.60429Z" />
</symbol>

<symbol id="warning"  viewBox="1 1 15 15">
<title>Warning</title>
<path d="M0.666656 14H15.3333L7.99999 1.33334L0.666656 14ZM8.66666 12H7.33332V10.6667H8.66666V12ZM8.66666 9.33334H7.33332V6.66668H8.66666V9.33334Z" fill="#FDB550"/>
</symbol>

<symbol id="addbtn"  viewBox="0 0 14 14">
<title>add</title>
<path d="M7.00016 0.333252C3.32016 0.333252 0.333496 3.31992 0.333496 6.99992C0.333496 10.6799 3.32016 13.6666 7.00016 13.6666C10.6802 13.6666 13.6668 10.6799 13.6668 6.99992C13.6668 3.31992 10.6802 0.333252 7.00016 0.333252ZM10.3335 7.66659H7.66683V10.3333H6.3335V7.66659H3.66683V6.33325H6.3335V3.66659H7.66683V6.33325H10.3335V7.66659Z" fill="#0072BC"/>
</symbol>

</defs>
</svg>
