<svg style="position:absolute; width: 0; height: 0; overflow: hidden;" version="1.1" xmlns="http://www.w3.org/2000/svg" xmlns:xlink="http://www.w3.org/1999/xlink">
<defs>
<symbol id="work"  fill="#000000" xmlns="http://www.w3.org/2000/svg"  viewBox="0 0 48 48"  viewBox="0 0 48 48">
<title>Jobs</title>
<path fill="none" stroke="#000000" stroke-linejoin="round" stroke-miterlimit="10" stroke-width="3" d="M36.5,41.5h-25	c-3.314,0-6-2.686-6-6v-14c0-3.314,2.686-6,6-6h25c3.314,0,6,2.686,6,6v14C42.5,38.814,39.814,41.5,36.5,41.5z"/>
<rect width="15" height="9" x="16.5" y="6.5" fill="none" stroke="#000000" stroke-linejoin="round" stroke-miterlimit="10" stroke-width="3"/>
</symbol>

<symbol id="add"  viewBox="0 0 20 20">
<title>Add Job</title>
<path d="M15.8333 10.8333H10.8333V15.8333H9.16666V10.8333H4.16666V9.16667H9.16666V4.16667H10.8333V9.16667H15.8333V10.8333Z"/>
</symbol>

<symbol id="log"  viewBox="0 0 20 20">
<title>Logs</title>
<path d="M15.8333 4.16667V15.8333H4.16667V4.16667H15.8333ZM15.8333 2.5H4.16667C3.25 2.5 2.5 3.25 2.5 4.16667V15.8333C2.5 16.75 3.25 17.5 4.16667 17.5H15.8333C16.75 17.5 17.5 16.75 17.5 15.8333V4.16667C17.5 3.25 16.75 2.5 15.8333 2.5Z" />
<path d="M11.6666 14.1667H5.83331V12.5H11.6666V14.1667ZM14.1666 10.8333H5.83331V9.16665H14.1666V10.8333ZM14.1666 7.49999H5.83331V5.83332H14.1666V7.49999Z" />
</symbol>

<symbol id="filter_list"  viewBox="0 0 20 20">
<title>Filter List</title>
<path d="M8.33333 15H11.6667V13.3333H8.33333V15ZM2.5 5V6.66667H17.5V5H2.5ZM5 10.8333H15V9.16667H5V10.8333Z" fill="#198754"/>
</symbol>

<symbol id="tiny-filter"  viewBox="0 0 20 20">
<title>Filter List</title>
<path d="M8.33333 15H11.6667V13.3333H8.33333V15ZM2.5 5V6.66667H17.5V5H2.5ZM5 10.8333H15V9.16667H5V10.8333Z" />
</symbol>


<symbol id="arrow-down"  viewBox="0 0 20 20">
<title></title>
<path d="M7.41 8.59L12 13.17L16.59 8.59L18 10L12 16L6 10L7.41 8.59Z" fill="#E4E4E4"/>
</symbol>

<symbol id="materials"  viewBox="0 0 20 20">
<title>Materials</title>
<path d="M10 1.66666L5.41669 9.16666H14.5834L10 1.66666Z" />
<path d="M14.5833 18.3333C16.6544 18.3333 18.3333 16.6544 18.3333 14.5833C18.3333 12.5123 16.6544 10.8333 14.5833 10.8333C12.5122 10.8333 10.8333 12.5123 10.8333 14.5833C10.8333 16.6544 12.5122 18.3333 14.5833 18.3333Z" />
<path d="M2.5 11.25H9.16667V17.9167H2.5V11.25Z" />
</symbol>

<symbol id="setting"  viewBox="0 0 20 20">
<title>Configure</title>
<path d="M15.95 10.78C15.98 10.53 16 10.27 16 10C16 9.73 15.98 9.47 15.94 9.22L17.63 7.9C17.78 7.78 17.82 7.56 17.73 7.39L16.13 4.62C16.03 4.44 15.82 4.38 15.64 4.44L13.65 5.24C13.23 4.92 12.79 4.66 12.3 4.46L12 2.34C11.97 2.14 11.8 2 11.6 2H8.40001C8.20001 2 8.04001 2.14 8.01001 2.34L7.71001 4.46C7.22001 4.66 6.77001 4.93 6.36001 5.24L4.37001 4.44C4.19001 4.37 3.98001 4.44 3.88001 4.62L2.28001 7.39C2.18001 7.57 2.22001 7.78 2.38001 7.9L4.07001 9.22C4.03001 9.47 4.00001 9.74 4.00001 10C4.00001 10.26 4.02001 10.53 4.06001 10.78L2.37001 12.1C2.22001 12.22 2.18001 12.44 2.27001 12.61L3.87001 15.38C3.97001 15.56 4.18001 15.62 4.36001 15.56L6.35001 14.76C6.77001 15.08 7.21001 15.34 7.70001 15.54L8.00001 17.66C8.04001 17.86 8.20001 18 8.40001 18H11.6C11.8 18 11.97 17.86 11.99 17.66L12.29 15.54C12.78 15.34 13.23 15.07 13.64 14.76L15.63 15.56C15.81 15.63 16.02 15.56 16.12 15.38L17.72 12.61C17.82 12.43 17.78 12.22 17.62 12.1L15.95 10.78ZM10 13C8.35001 13 7.00001 11.65 7.00001 10C7.00001 8.35 8.35001 7 10 7C11.65 7 13 8.35 13 10C13 11.65 11.65 13 10 13Z"/>
</symbol>

<symbol id="tool"  viewBox="0 0 20 20">
<title>Tools</title>
<path d="M17.025 14.25L10.2 7.42501C10.875 5.70001 10.5 3.67501 9.07502 2.25001C7.57502 0.750009 5.32502 0.450009 3.52502 1.27501L6.75001 4.50001L4.50002 6.75001L1.20002 3.52501C0.300016 5.32501 0.675016 7.57501 2.17502 9.07501C3.60002 10.5 5.62502 10.875 7.35001 10.2L14.175 17.025C14.475 17.325 14.925 17.325 15.225 17.025L16.95 15.3C17.325 15 17.325 14.475 17.025 14.25Z"/>
</symbol>

<symbol id="toggle-on"  viewBox="0 0 32 32">
<title>Click to Off</title>
<path d="M22.6667 9.33333H9.33335C5.65335 9.33333 2.66669 12.32 2.66669 16C2.66669 19.68 5.65335 22.6667 9.33335 22.6667H22.6667C26.3467 22.6667 29.3334 19.68 29.3334 16C29.3334 12.32 26.3467 9.33333 22.6667 9.33333ZM22.6667 20C20.4534 20 18.6667 18.2133 18.6667 16C18.6667 13.7867 20.4534 12 22.6667 12C24.88 12 26.6667 13.7867 26.6667 16C26.6667 18.2133 24.88 20 22.6667 20Z" fill="#0072BC"/>
</symbol>

<symbol id="toggle-off"  viewBox="0 0 25 25">
<title>Click to On</title>
<path d="M17 7H7C4.24 7 2 9.24 2 12C2 14.76 4.24 17 7 17H17C19.76 17 22 14.76 22 12C22 9.24 19.76 7 17 7ZM7 15C5.34 15 4 13.66 4 12C4 10.34 5.34 9 7 9C8.66 9 10 10.34 10 12C10 13.66 8.66 15 7 15Z"  fill="#5C5C5C"/>
</symbol>

<symbol id="arrow-up-red"  viewBox="0 0 20 20">

<path d="M3.33334 9.99998L4.51251 11.1791L9.16668 6.52498V16.6666H10.8333V6.52498L15.4875 11.1791L16.6667 9.99998L10 3.33331L3.33334 9.99998Z"/>
</symbol>

<symbol id="delete"  viewBox="0 0 20 20">
<title>delete</title>
<path d="M5.00001 15.8333C5.00001 16.75 5.75001 17.5 6.66667 17.5H13.3333C14.25 17.5 15 16.75 15 15.8333V5.83333H5.00001V15.8333ZM15.8333 3.33333H12.9167L12.0833 2.5H7.91667L7.08334 3.33333H4.16667V5H15.8333V3.33333Z" fill="#842029"/>
</symbol>

<symbol id="error"  viewBox="0 0 20 20">
<title>error</title>
<path d="M10 1.66667C5.40001 1.66667 1.66667 5.40001 1.66667 10C1.66667 14.6 5.40001 18.3333 10 18.3333C14.6 18.3333 18.3333 14.6 18.3333 10C18.3333 5.40001 14.6 1.66667 10 1.66667ZM10.8333 14.1667H9.16667V12.5H10.8333V14.1667ZM10.8333 10.8333H9.16667V5.83334H10.8333V10.8333Z" fill="#0072BC"/>
</symbol>

<symbol id="tick" viewBox="0 0 16 16">
<path d="M5.49999 9.49999L1.99999 5.99999L0.833328 7.16666L5.49999 11.8333L15.5 1.83332L14.3333 0.666656L5.49999 9.49999Z" fill="#28A745"/>
</symbol>

<symbol id="refresh"  viewBox="0 0 16 16">
<title>restore</title>
<path d="M11.7667 4.23332C10.8 3.26666 9.47334 2.66666 8.00001 2.66666C5.05334 2.66666 2.67334 5.05332 2.67334 7.99999C2.67334 10.9467 5.05334 13.3333 8.00001 13.3333C10.4867 13.3333 12.56 11.6333 13.1533 9.33332H11.7667C11.22 10.8867 9.74001 12 8.00001 12C5.79334 12 4.00001 10.2067 4.00001 7.99999C4.00001 5.79332 5.79334 3.99999 8.00001 3.99999C9.10667 3.99999 10.0933 4.45999 10.8133 5.18666L8.66667 7.33332H13.3333V2.66666L11.7667 4.23332Z" />
</symbol>

<symbol id="done"  viewBox=".3 0 14 14">
<title>Done</title>
<path d="M5.25 9.45L2.8 7L1.98334 7.81667L5.25 11.0833L12.25 4.08334L11.4333 3.26667L5.25 9.45Z" fill="white"/>
</symbol>

<symbol id="info"  viewBox="1 1 14 14">
<title>Info</title>
<path d="M8.00001 1.33334C4.32001 1.33334 1.33334 4.32001 1.33334 8.00001C1.33334 11.68 4.32001 14.6667 8.00001 14.6667C11.68 14.6667 14.6667 11.68 14.6667 8.00001C14.6667 4.32001 11.68 1.33334 8.00001 1.33334ZM8.66668 11.3333H7.33334V7.33334H8.66668V11.3333ZM8.66668 6.00001H7.33334V4.66668H8.66668V6.00001Z" fill="#0072BC"/>
</symbol>

<symbol id="close"  viewBox="0 0 14 14">
<title>Close</title>
<path d="M10 4.60429L9.39571 4L7 6.39571L4.60429 4L4 4.60429L6.39571 7L4 9.39571L4.60429 10L7 7.60429L9.39571 10L10 9.39571L7.60429 7L10 4.60429Z" fill="white"/>
</symbol>

<symbol id="warning"  viewBox="1 1 15 15">
<title>Warning</title>
<path d="M0.666656 14H15.3333L7.99999 1.33334L0.666656 14ZM8.66666 12H7.33332V10.6667H8.66666V12ZM8.66666 9.33334H7.33332V6.66668H8.66666V9.33334Z" fill="#FDB550"/>
</symbol>

<symbol id="addbtn"  viewBox="0 0 14 14">
<title>add</title>
<path d="M7.00016 0.333252C3.32016 0.333252 0.333496 3.31992 0.333496 6.99992C0.333496 10.6799 3.32016 13.6666 7.00016 13.6666C10.6802 13.6666 13.6668 10.6799 13.6668 6.99992C13.6668 3.31992 10.6802 0.333252 7.00016 0.333252ZM10.3335 7.66659H7.66683V10.3333H6.3335V7.66659H3.66683V6.33325H6.3335V3.66659H7.66683V6.33325H10.3335V7.66659Z" fill="#0072BC"/>
</symbol>

</defs>
</svg>
