<svg style="position:absolute; width: 0; height: 0; overflow: hidden;" version="1.1" xmlns="http://www.w3.org/2000/svg" xmlns:xlink="http://www.w3.org/1999/xlink">
<defs>
<symbol id="simulation" viewBox="0 0 512 512" >
<title>Simulation</title>
  <g>
	<g>
		<path d="M358.4,375.467c-5.12,0-8.533,3.413-8.533,8.533s3.413,8.533,8.533,8.533s8.533-3.413,8.533-8.533    S363.52,375.467,358.4,375.467z"/>
	</g>
</g>
<g>
	<g>
		<path d="M290.133,375.467c-5.12,0-8.533,3.413-8.533,8.533s3.413,8.533,8.533,8.533s8.533-3.413,8.533-8.533    S295.253,375.467,290.133,375.467z"/>
	</g>
</g>
<g>
	<g>
		<path d="M85.333,375.467c-5.12,0-8.533,3.413-8.533,8.533s3.413,8.533,8.533,8.533c5.12,0,8.533-3.413,8.533-8.533    S90.453,375.467,85.333,375.467z"/>
	</g>
</g>
<g>
	<g>
		<path d="M153.6,375.467c-5.12,0-8.533,3.413-8.533,8.533s3.413,8.533,8.533,8.533c5.12,0,8.533-3.413,8.533-8.533    S158.72,375.467,153.6,375.467z"/>
	</g>
</g>
<g>
	<g>
		<path d="M221.867,375.467c-5.12,0-8.533,3.413-8.533,8.533s3.413,8.533,8.533,8.533S230.4,389.12,230.4,384    S226.987,375.467,221.867,375.467z"/>
	</g>
</g>
<g>
	<g>
		<path d="M426.667,375.467c-5.12,0-8.533,3.413-8.533,8.533s3.413,8.533,8.533,8.533S435.2,389.12,435.2,384    S431.787,375.467,426.667,375.467z"/>
	</g>
</g>
<g>
	<g>
		<path d="M491.52,443.733c11.093,0,20.48-9.387,20.48-20.48v-79.36c0-10.24-7.68-18.773-17.067-19.627v-30.72    c0-10.24-7.68-18.773-17.067-20.48V8.533c0-5.12-3.413-8.533-8.533-8.533h-51.2H153.6c-5.12,0-8.533,3.413-8.533,8.533v51.2    c0,5.12,3.413,8.533,8.533,8.533h8.533v25.6c0,5.12,3.413,8.533,8.533,8.533h8.533v17.067c0,11.093,6.827,20.48,17.067,23.893    v27.307c0,5.12,3.413,8.533,8.533,8.533c5.12,0,8.533-3.413,8.533-8.533V143.36c10.24-3.413,17.067-12.8,17.067-23.893V102.4    h8.533c5.12,0,8.533-3.413,8.533-8.533v-25.6H358.4v42.667c0,29.867,22.187,54.613,51.2,58.88v103.253H256v-59.733    c0-5.12-3.413-8.533-8.533-8.533h-85.333h-42.667v-17.067c0-5.12-3.413-8.533-8.533-8.533s-8.533,3.413-8.533,8.533v51.2    c0,5.12,3.413,8.533,8.533,8.533s8.533-3.413,8.533-8.533v-17.067H153.6v51.2H38.4c-11.947,0-21.333,9.387-21.333,21.333v29.867    C7.68,325.973,0,334.507,0,343.893v79.36c0,11.093,9.387,20.48,20.48,20.48h5.12v51.2H8.533c-5.12,0-8.533,3.413-8.533,8.533    S3.413,512,8.533,512h25.6h51.2h341.333h51.2h25.6c5.12,0,8.533-3.413,8.533-8.533s-3.413-8.533-8.533-8.533H486.4v-51.2H491.52z     M375.467,110.933V68.267H409.6v84.48C389.973,148.48,375.467,131.413,375.467,110.933z M76.8,494.933H42.667v-51.2H76.8V494.933z     M59.733,384c0-14.507,11.093-25.6,25.6-25.6c14.507,0,25.6,11.093,25.6,25.6c0,14.507-11.093,25.6-25.6,25.6    C70.827,409.6,59.733,398.507,59.733,384z M418.133,494.933H93.867v-51.2h324.267V494.933z M128,384    c0-14.507,11.093-25.6,25.6-25.6c14.507,0,25.6,11.093,25.6,25.6c0,14.507-11.093,25.6-25.6,25.6    C139.093,409.6,128,398.507,128,384z M196.267,384c0-14.507,11.093-25.6,25.6-25.6c14.507,0,25.6,11.093,25.6,25.6    c0,14.507-11.093,25.6-25.6,25.6C207.36,409.6,196.267,398.507,196.267,384z M264.533,384c0-14.507,11.093-25.6,25.6-25.6    c14.507,0,25.6,11.093,25.6,25.6c0,14.507-11.093,25.6-25.6,25.6C275.627,409.6,264.533,398.507,264.533,384z M332.8,384    c0-14.507,11.093-25.6,25.6-25.6S384,369.493,384,384c0,14.507-11.093,25.6-25.6,25.6S332.8,398.507,332.8,384z M401.067,384    c0-14.507,11.093-25.6,25.6-25.6s25.6,11.093,25.6,25.6c0,14.507-11.093,25.6-25.6,25.6S401.067,398.507,401.067,384z     M469.333,494.933H435.2v-51.2h34.133V494.933z M477.867,324.267H34.133V294.4c0-2.56,1.707-4.267,4.267-4.267h123.733h85.333    h170.667h51.2h4.267c2.56,0,4.267,1.707,4.267,4.267V324.267z"/>
	</g>
</g>
<g>
</g>
<g>
</g>
<g>
</g>
<g>
</g>
<g>
</g>
<g>
</g>
<g>
</g>
<g>
</g>
<g>
</g>
<g>
</g>
<g>
</g>
<g>
</g>
<g>
</g>
<g>
</g>
<g>
</g>
</symbol>

<!-- <symbol id="userpic"  viewBox="326.713 76.975 338.804 341.008">
<title></title>
<g transform="matrix(1.906955, 0, 0, 1.906955, -266.66761, -324.607462)" style="">
    <title>Layer 1</title>
    <g stroke="null" id="svg_8">
      <ellipse stroke="null" ry="48.2353" rx="48.2353" id="svg_5" cy="258.82353" cx="400.00001" fill="#0072bc"/>
      <rect stroke="null" rx="35" id="svg_6" height="74.11765" width="177.66734" y="315.29412" x="311.16632" fill="#0072bc"/>
    </g>
  </g>
  </symbol> -->


<symbol id="work"  viewBox="0 0 512 512">

  <path d="M320 336c0 8.844-7.156 16-16 16h-96C199.2 352 192 344.8 192 336V288H0v144C0 457.6 22.41 480 48 480h416c25.59 0 48-22.41 48-48V288h-192V336zM464 96H384V48C384 22.41 361.6 0 336 0h-160C150.4 0 128 22.41 128 48V96H48C22.41 96 0 118.4 0 144V256h512V144C512 118.4 489.6 96 464 96zM336 96h-160V48h160V96z" />
  <title>Jobs</title>
</symbol>

<symbol id="add"  viewBox="0 0 20 20">
<title>Add Job</title>
<path d="M15.8333 10.8333H10.8333V15.8333H9.16666V10.8333H4.16666V9.16667H9.16666V4.16667H10.8333V9.16667H15.8333V10.8333Z"/>
</symbol>


  <symbol id="collapse"  viewBox="0 0 16 16">
<title>Collapse Menu</title>
  <path d="M16 8A8 8 0 1 1 0 8a8 8 0 0 1 16 0zM6.79 5.093A.5.5 0 0 0 6 5.5v5a.5.5 0 0 0 .79.407l3.5-2.5a.5.5 0 0 0 0-.814l-3.5-2.5z"/>
</symbol>

<symbol id="log"    viewBox="0 0 512 512">
	<polygon points="320,12.499 320,127.998 435.499,127.998    "/>
	<path d="M298.667,170.667c-11.776,0-21.333-9.536-21.333-21.333V0h-192C73.557,0,64,9.536,64,21.333v469.333     C64,502.464,73.557,512,85.333,512h341.333c11.776,0,21.333-9.536,21.333-21.333v-320H298.667z M170.667,128h42.667     c11.776,0,21.333,9.536,21.333,21.333c0,11.797-9.557,21.333-21.333,21.333h-42.667c-11.776,0-21.333-9.536-21.333-21.333     C149.333,137.536,158.891,128,170.667,128z M341.333,384H170.667c-11.776,0-21.333-9.536-21.333-21.333     s9.557-21.333,21.333-21.333h170.667c11.776,0,21.333,9.536,21.333,21.333S353.109,384,341.333,384z M341.333,277.333H170.667     c-11.776,0-21.333-9.536-21.333-21.333s9.557-21.333,21.333-21.333h170.667c11.776,0,21.333,9.536,21.333,21.333     S353.109,277.333,341.333,277.333z"/>
<title>Logs</title>
</symbol>

<symbol id="filter_list"  viewBox="0 0 20 20">
<title>Filter List</title>
<path d="M8.33333 15H11.6667V13.3333H8.33333V15ZM2.5 5V6.66667H17.5V5H2.5ZM5 10.8333H15V9.16667H5V10.8333Z" fill="#198754"/>
</symbol>

<symbol id="tiny-filter"  viewBox="0 0 20 20">
<title>Filter List</title>
<path d="M8.33333 15H11.6667V13.3333H8.33333V15ZM2.5 5V6.66667H17.5V5H2.5ZM5 10.8333H15V9.16667H5V10.8333Z" />
</symbol>


<symbol id="arrow-down"  viewBox="0 0 20 20">
<title></title>
<path d="M7.41 8.59L12 13.17L16.59 8.59L18 10L12 16L6 10L7.41 8.59Z" fill="#E4E4E4"/>
</symbol>

<symbol id="materials"  viewBox="0 0 512 512">
	<path d="M128,256A128,128,0,1,0,256,384,128,128,0,0,0,128,256Zm379-54.86L400.07,18.29a37.26,37.26,0,0,0-64.14,0L229,201.14C214.76,225.52,232.58,256,261.09,256H474.91C503.42,256,521.24,225.52,507,201.14ZM480,288H320a32,32,0,0,0-32,32V480a32,32,0,0,0,32,32H480a32,32,0,0,0,32-32V320A32,32,0,0,0,480,288Z" />
	<title>Boards</title>
</symbol>

<symbol id="configure"  viewBox="0 0 932.179 932.179">
<title>Configure</title>
	<path d="M61.2,341.538c4.9,16.8,11.7,33,20.3,48.2l-24.5,30.9c-8,10.1-7.1,24.5,1.9,33.6l42.2,42.2c9.1,9.1,23.5,9.899,33.6,1.899   l30.7-24.3c15.8,9.101,32.6,16.2,50.1,21.2l4.6,39.5c1.5,12.8,12.3,22.4,25.1,22.4h59.7c12.8,0,23.6-9.601,25.1-22.4l4.4-38.1   c18.8-4.9,36.8-12.2,53.7-21.7l29.7,23.5c10.1,8,24.5,7.1,33.6-1.9l42.2-42.2c9.1-9.1,9.9-23.5,1.9-33.6l-23.1-29.3   c9.6-16.601,17.1-34.3,22.1-52.8l35.6-4.1c12.801-1.5,22.4-12.3,22.4-25.1v-59.7c0-12.8-9.6-23.6-22.4-25.1l-35.1-4.1   c-4.801-18.3-12-35.8-21.199-52.2l21.6-27.3c8-10.1,7.1-24.5-1.9-33.6l-42.1-42.1c-9.1-9.1-23.5-9.9-33.6-1.9l-26.5,21   c-17.2-10.1-35.601-17.8-54.9-23l-4-34.3c-1.5-12.8-12.3-22.4-25.1-22.4h-59.7c-12.8,0-23.6,9.6-25.1,22.4l-4,34.3   c-19.8,5.3-38.7,13.3-56.3,23.8l-27.5-21.8c-10.1-8-24.5-7.1-33.6,1.9l-42.2,42.2c-9.1,9.1-9.9,23.5-1.9,33.6l23,29.1   c-9.2,16.6-16.2,34.3-20.8,52.7l-36.8,4.2c-12.8,1.5-22.4,12.3-22.4,25.1v59.7c0,12.8,9.6,23.6,22.4,25.1L61.2,341.538z    M277.5,180.038c54.4,0,98.7,44.3,98.7,98.7s-44.3,98.7-98.7,98.7c-54.399,0-98.7-44.3-98.7-98.7S223.1,180.038,277.5,180.038z"/>
	<path d="M867.699,356.238l-31.5-26.6c-9.699-8.2-24-7.8-33.199,0.9l-17.4,16.3c-14.699-7.1-30.299-12.1-46.4-15l-4.898-24   c-2.5-12.4-14-21-26.602-20l-41.1,3.5c-12.6,1.1-22.5,11.4-22.9,24.1l-0.799,24.4c-15.801,5.7-30.701,13.5-44.301,23.3   l-20.799-13.8c-10.602-7-24.701-5-32.9,4.7l-26.6,31.7c-8.201,9.7-7.801,24,0.898,33.2l18.201,19.399   c-6.301,14.2-10.801,29.101-13.4,44.4l-26,5.3c-12.4,2.5-21,14-20,26.601l3.5,41.1c1.1,12.6,11.4,22.5,24.1,22.9l28.1,0.899   c5.102,13.4,11.801,26.101,19.9,38l-15.699,23.7c-7,10.6-5,24.7,4.699,32.9l31.5,26.6c9.701,8.2,24,7.8,33.201-0.9l20.6-19.3   c13.5,6.3,27.699,11,42.299,13.8l5.701,28.2c2.5,12.4,14,21,26.6,20l41.1-3.5c12.6-1.1,22.5-11.399,22.9-24.1l0.9-27.601   c15-5.3,29.199-12.5,42.299-21.399l22.701,15c10.6,7,24.699,5,32.9-4.7l26.6-31.5c8.199-9.7,7.799-24-0.9-33.2l-18.301-19.399   c6.701-14.2,11.602-29.2,14.4-44.601l25-5.1c12.4-2.5,21-14,20-26.601l-3.5-41.1c-1.1-12.6-11.4-22.5-24.1-22.9l-25.1-0.8   c-5.201-14.6-12.201-28.399-20.9-41.2l13.699-20.6C879.4,378.638,877.4,364.438,867.699,356.238z M712.801,593.837   c-44.4,3.801-83.602-29.3-87.301-73.699c-3.801-44.4,29.301-83.601,73.699-87.301c44.4-3.8,83.602,29.301,87.301,73.7   C790.301,550.938,757.199,590.138,712.801,593.837z"/>
	<path d="M205,704.438c-12.6,1.3-22.3,11.899-22.4,24.6l-0.3,25.3c-0.2,12.7,9.2,23.5,21.8,25.101l18.6,2.399   c3.1,11.301,7.5,22.101,13.2,32.301l-12,14.8c-8,9.899-7.4,24.1,1.5,33.2l17.7,18.1c8.9,9.1,23.1,10.1,33.2,2.3l14.899-11.5   c10.5,6.2,21.601,11.101,33.2,14.5l2,19.2c1.3,12.6,11.9,22.3,24.6,22.4l25.301,0.3c12.699,0.2,23.5-9.2,25.1-21.8l2.3-18.2   c12.601-3.101,24.601-7.8,36-14l14,11.3c9.9,8,24.101,7.4,33.201-1.5l18.1-17.7c9.1-8.899,10.1-23.1,2.301-33.2L496.6,818.438   c6.6-11,11.701-22.7,15.201-35l16.6-1.7c12.6-1.3,22.299-11.9,22.4-24.6l0.299-25.301c0.201-12.699-9.199-23.5-21.799-25.1   l-16.201-2.1c-3.1-12.2-7.699-24-13.699-35l10.1-12.4c8-9.9,7.4-24.1-1.5-33.2l-17.699-18.1c-8.9-9.101-23.102-10.101-33.201-2.3   l-12.101,9.3c-11.399-6.9-23.6-12.2-36.399-15.8l-1.601-15.7c-1.3-12.601-11.899-22.3-24.6-22.4l-25.3-0.3   c-12.7-0.2-23.5,9.2-25.101,21.8l-2,15.601c-13.199,3.399-25.899,8.6-37.699,15.399l-12.5-10.2c-9.9-8-24.101-7.399-33.201,1.5   l-18.2,17.801c-9.1,8.899-10.1,23.1-2.3,33.199l10.7,13.801c-6.2,11-11.1,22.699-14.3,35L205,704.438z M368.3,675.837   c36.3,0.4,65.399,30.301,65,66.601c-0.4,36.3-30.301,65.399-66.601,65c-36.3-0.4-65.399-30.3-65-66.601   C302.1,704.538,332,675.438,368.3,675.837z"/>
</symbol>

<symbol id="setting"  fill="#0072bc" viewBox="0 0 512 512">
<path d="M256,192c-35.285,0-64,28.715-64,64s28.715,64,64,64s64-28.715,64-64S291.285,192,256,192z"/>
<path d="M494.699,212.48l-28.245-5.44c-12.651-2.411-22.571-10.688-27.285-22.635c-4.715-12.011-3.051-24.832,4.587-35.221     l17.728-24.192c6.229-8.469,5.312-20.245-2.133-27.669l-38.293-38.293c-7.211-7.232-18.603-8.299-27.029-2.581l-23.829,16.107     c-10.624,7.232-23.467,8.405-35.307,3.285c-11.797-5.163-19.712-15.403-21.653-28.139l-4.565-29.611     C307.072,7.68,298.112,0,287.573,0h-54.144c-10.219,0-19.008,7.253-20.949,17.301l-7.019,36.48     c-2.368,12.352-10.389,22.208-22.016,27.008c-11.627,4.843-24.299,3.541-34.709-3.52l-30.763-20.821     c-8.427-5.717-19.776-4.651-27.029,2.581L52.651,97.323c-7.445,7.424-8.363,19.2-2.133,27.669l17.728,24.213     c7.637,10.368,9.301,23.189,4.587,35.2c-4.715,11.947-14.635,20.224-27.307,22.635l-28.224,5.44     C7.253,214.421,0,223.211,0,233.429v54.144c0,10.539,7.68,19.499,18.091,21.099l29.611,4.565     c12.736,1.941,22.976,9.856,28.139,21.653c5.141,11.797,3.947,24.661-3.285,35.328l-16.107,23.808     c-5.739,8.448-4.651,19.797,2.581,27.029l38.293,38.293c7.445,7.467,19.2,8.32,27.669,2.133l24.213-17.728     c10.368-7.616,23.168-9.259,35.2-4.587c11.947,4.715,20.224,14.635,22.635,27.307l5.44,28.224     C214.421,504.747,223.211,512,233.429,512h54.144c10.539,0,19.499-7.68,21.099-18.091l3.2-20.821     c2.005-13.035,10.133-23.381,22.293-28.395c12.075-5.035,25.195-3.477,35.84,4.331l17.003,12.459     c8.427,6.187,20.224,5.333,27.669-2.133l38.293-38.293c7.232-7.232,8.32-18.581,2.581-27.029l-16.107-23.829     c-7.232-10.645-8.427-23.509-3.285-35.307c5.163-11.797,15.403-19.712,28.139-21.653l29.611-4.565     c10.411-1.6,18.091-10.56,18.091-21.099v-54.144C512,223.211,504.747,214.421,494.699,212.48z M256,362.667     c-58.816,0-106.667-47.851-106.667-106.667S197.184,149.333,256,149.333S362.667,197.184,362.667,256     S314.816,362.667,256,362.667z"/>
<title>Site Setting</title>
</symbol>

<symbol id="tool" viewBox="0 0 512 512">
  <title>Tools</title>
  <path d="M507.6 122.8c-2.904-12.09-18.25-16.13-27.04-7.338l-76.55 76.56l-83.1-.0002l0-83.1l76.55-76.56c8.791-8.789 4.75-24.14-7.336-27.04c-23.69-5.693-49.34-6.111-75.92 .2484c-61.45 14.7-109.4 66.9-119.2 129.3C189.8 160.8 192.3 186.7 200.1 210.1l-178.1 178.1c-28.12 28.12-28.12 73.69 0 101.8C35.16 504.1 53.56 512 71.1 512s36.84-7.031 50.91-21.09l178.1-178.1c23.46 7.736 49.31 10.24 76.17 6.004c62.41-9.84 114.6-57.8 129.3-119.2C513.7 172.1 513.3 146.5 507.6 122.8zM80 456c-13.25 0-24-10.75-24-24c0-13.26 10.75-24 24-24s24 10.74 24 24C104 445.3 93.25 456 80 456z" />
</symbol>

<symbol id="toggle-on"  viewBox="0 0 32 32">
<title>Click to Off</title>
<path d="M22.6667 9.33333H9.33335C5.65335 9.33333 2.66669 12.32 2.66669 16C2.66669 19.68 5.65335 22.6667 9.33335 22.6667H22.6667C26.3467 22.6667 29.3334 19.68 29.3334 16C29.3334 12.32 26.3467 9.33333 22.6667 9.33333ZM22.6667 20C20.4534 20 18.6667 18.2133 18.6667 16C18.6667 13.7867 20.4534 12 22.6667 12C24.88 12 26.6667 13.7867 26.6667 16C26.6667 18.2133 24.88 20 22.6667 20Z" fill="#0072BC"/>
</symbol>

<symbol id="toggle-off"  viewBox="0 0 25 25">
<title>Click to On</title>
<path d="M17 7H7C4.24 7 2 9.24 2 12C2 14.76 4.24 17 7 17H17C19.76 17 22 14.76 22 12C22 9.24 19.76 7 17 7ZM7 15C5.34 15 4 13.66 4 12C4 10.34 5.34 9 7 9C8.66 9 10 10.34 10 12C10 13.66 8.66 15 7 15Z"  fill="#5C5C5C"/>
</symbol>

<symbol id="circ" viewBox="0 0 100 100" >
  <circle cx="50" cy="50" r="40" fill="none" stroke="#fff" stroke-width="2"/>
</symbol>

<symbol id="delete"  viewBox="0 0 20 20">
<title>delete</title>
<path d="M5.00001 15.8333C5.00001 16.75 5.75001 17.5 6.66667 17.5H13.3333C14.25 17.5 15 16.75 15 15.8333V5.83333H5.00001V15.8333ZM15.8333 3.33333H12.9167L12.0833 2.5H7.91667L7.08334 3.33333H4.16667V5H15.8333V3.33333Z" fill="#842029"/>
</symbol>

<symbol id="error"  viewBox="0 0 20 20">
<title>error</title>
<path d="M10 1.66667C5.40001 1.66667 1.66667 5.40001 1.66667 10C1.66667 14.6 5.40001 18.3333 10 18.3333C14.6 18.3333 18.3333 14.6 18.3333 10C18.3333 5.40001 14.6 1.66667 10 1.66667ZM10.8333 14.1667H9.16667V12.5H10.8333V14.1667ZM10.8333 10.8333H9.16667V5.83334H10.8333V10.8333Z" fill="#0072BC"/>
</symbol>

<symbol id="tick" viewBox="0 0 16 16">
<path d="M5.49999 9.49999L1.99999 5.99999L0.833328 7.16666L5.49999 11.8333L15.5 1.83332L14.3333 0.666656L5.49999 9.49999Z" fill="#28A745"/>
</symbol>

<symbol id="refresh"  viewBox="0 0 16 16">
<title>restore</title>
<path d="M11.7667 4.23332C10.8 3.26666 9.47334 2.66666 8.00001 2.66666C5.05334 2.66666 2.67334 5.05332 2.67334 7.99999C2.67334 10.9467 5.05334 13.3333 8.00001 13.3333C10.4867 13.3333 12.56 11.6333 13.1533 9.33332H11.7667C11.22 10.8867 9.74001 12 8.00001 12C5.79334 12 4.00001 10.2067 4.00001 7.99999C4.00001 5.79332 5.79334 3.99999 8.00001 3.99999C9.10667 3.99999 10.0933 4.45999 10.8133 5.18666L8.66667 7.33332H13.3333V2.66666L11.7667 4.23332Z" />
</symbol>

<symbol id="done"  viewBox=".3 0 14 14">
<title>Done</title>
<path d="M5.25 9.45L2.8 7L1.98334 7.81667L5.25 11.0833L12.25 4.08334L11.4333 3.26667L5.25 9.45Z" fill="white"/>
</symbol>

<symbol id="info"  viewBox="1 1 14 14">
<title>Info</title>
<path d="M8.00001 1.33334C4.32001 1.33334 1.33334 4.32001 1.33334 8.00001C1.33334 11.68 4.32001 14.6667 8.00001 14.6667C11.68 14.6667 14.6667 11.68 14.6667 8.00001C14.6667 4.32001 11.68 1.33334 8.00001 1.33334ZM8.66668 11.3333H7.33334V7.33334H8.66668V11.3333ZM8.66668 6.00001H7.33334V4.66668H8.66668V6.00001Z" fill="#0072BC"/>
</symbol>

<symbol id="close"  viewBox="0 0 14 14">
<title>Close</title>
<path d="M10 4.60429L9.39571 4L7 6.39571L4.60429 4L4 4.60429L6.39571 7L4 9.39571L4.60429 10L7 7.60429L9.39571 10L10 9.39571L7.60429 7L10 4.60429Z" />
</symbol>

<symbol id="warning"  viewBox="1 1 15 15">
<title>Warning</title>
<path d="M0.666656 14H15.3333L7.99999 1.33334L0.666656 14ZM8.66666 12H7.33332V10.6667H8.66666V12ZM8.66666 9.33334H7.33332V6.66668H8.66666V9.33334Z" fill="#FDB550"/>
</symbol>

<symbol id="addbtn"  viewBox="0 0 14 14">
<title>add</title>
<path d="M7.00016 0.333252C3.32016 0.333252 0.333496 3.31992 0.333496 6.99992C0.333496 10.6799 3.32016 13.6666 7.00016 13.6666C10.6802 13.6666 13.6668 10.6799 13.6668 6.99992C13.6668 3.31992 10.6802 0.333252 7.00016 0.333252ZM10.3335 7.66659H7.66683V10.3333H6.3335V7.66659H3.66683V6.33325H6.3335V3.66659H7.66683V6.33325H10.3335V7.66659Z" fill="#0072BC"/>
</symbol>

<symbol id="userpic"  viewBox="-236.474 34.913 350.969 350.969">
  <circle style="stroke: rgb(0, 114, 188); fill: rgba(216, 216, 216, 0); stroke-width: 25px;" cx="-60.989" cy="210.397" r="162.834" transform="matrix(0.999865, 0.016426, -0.022884, 0.999717, 4.805991, 1.061867)"/>
  <g transform="matrix(1.341723, 0, 0, 1.341723, -735.395774, -51.250475)" >
    <g>
      <ellipse stroke="null" ry="40.316" rx="40.316" id="svg_5" cy="158.357" cx="502.642" fill="#0072bc"/>
      <rect stroke="null" rx="35" id="svg_6" height="61.949" width="148.498" y="205.556" x="428.393" fill="#0072bc"/>
    </g>
  </g>
  </symbol>
<symbol id="menuarrow"   viewBox="0 0 32 32">
  <g fill="none"><path d="m20 28-11.29289322-11.2928932c-.39052429-.3905243-.39052429-1.0236893 0-1.4142136l11.29289322-11.2928932"></path></g>
</symbol>

<symbol id="signout"  viewBox="-37.065 176.235 26.338 32.1">

<path fill-rule="evenodd" d="M -32.68 176.235 C -35.094 176.249 -37.049 178.203 -37.065 180.617 L -37.065 203.953 C -37.049 206.367 -35.094 208.32 -32.68 208.335 L -26.854 208.335 C -24.44 208.32 -22.487 206.367 -22.472 203.953 L -22.472 198.115 C -22.472 196.169 -25.39 196.169 -25.39 198.115 L -25.39 203.953 C -25.372 204.769 -26.039 205.435 -26.854 205.418 L -32.68 205.418 C -33.496 205.435 -34.161 204.769 -34.143 203.953 L -34.143 180.617 C -34.161 179.801 -33.494 179.135 -32.679 179.152 L -26.853 179.152 C -26.037 179.135 -25.371 179.801 -25.388 180.617 L -25.388 186.454 C -25.388 188.4 -22.471 188.4 -22.471 186.454 L -22.471 180.617 C -22.485 178.203 -24.44 176.248 -26.854 176.235 L -32.68 176.235 Z M -20.033 184.972 C -20.08 184.972 -20.127 184.974 -20.173 184.978 C -21.291 185.086 -21.873 186.364 -21.219 187.277 C -21.168 187.349 -21.111 187.416 -21.049 187.477 L -17.698 190.825 L -29.684 190.825 C -29.735 190.822 -28.785 190.822 -28.836 190.825 C -30.78 190.927 -30.63 193.846 -28.684 193.745 L -17.707 193.745 L -21.047 197.081 C -21.844 197.873 -21.483 199.23 -20.4 199.523 C -19.896 199.66 -19.358 199.517 -18.989 199.15 L -13.151 193.312 C -12.585 192.743 -12.585 191.824 -13.151 191.255 L -18.989 185.42 C -19.262 185.136 -19.638 184.975 -20.032 184.972 L -20.033 184.972 Z" color="#000" font-family="sans-serif" font-weight="400" overflow="visible" paint-order="stroke fill markers" style="line-height: normal; font-variant-ligatures: normal; font-variant-caps: normal; font-variant-numeric: normal; font-feature-settings: normal; text-indent: 0px; text-align: start; text-decoration-line: none; text-decoration-style: solid; text-decoration-color: rgb(0, 0, 0); text-transform: none; text-orientation: mixed; isolation: auto; mix-blend-mode: normal; fill: rgb(0, 114, 188);"></path>
</symbol>

</defs>
</svg>
